<svg width="217" height="85" viewBox="0 0 217 85" xmlns="http://www.w3.org/2000/svg"><g fill="none" fill-rule="evenodd"><path d="M123.273.822c4.94 0 11.027 4.536 11.027 13.948 0 16.782-21.453 26.1-24.22 34.347-.293.875-1.06.599-1.299.233-3.467-5.322-20.619-8.839-20.619-25.962 0-13.268 9.141-17.379 12.397-17.379 4.041 0 7.441 2.41 8.395 4.622 3.536-6.124 9.379-9.81 14.319-9.81z" fill="#FFF" fill-rule="nonzero"/><path d="M94.706 11.759l11.586-1.091c.656.743 1.01 1.511 1.127 2.025.298 1.303 1.969 2.345 2.505.208.157-.624.712-1.623 1.578-2.724l17.243-1.623c.709 1.557 1.01 3.352.992 5.059l-37.495 3.53c.506-2.307 1.4-4.07 2.464-5.384zM98.007 34.695l21.484-2.294c-2.164 2.343-4.328 4.514-6.13 6.5l-9.45 1.008c-1.882-1.49-3.992-3.2-5.904-5.214zM111.88 25.29l-.871 1.648 1.742-.188-.872-1.46zm-3.38 4.446l.87-1.647-1.74.188.87 1.46zm-4.25-2.067l1.742-.188-.87-1.459-.871 1.647zm0-5.053l.871 1.459.87-1.648-1.74.189zm4.25-2.987l-.87 1.647 1.74-.188-.87-1.459zm2.833 4.747l-1.416-2.374-2.833.307-1.417 2.68 1.417 2.373 2.833-.306 1.416-2.68zm1.418-2.68l-1.742.188.87 1.46.872-1.649zm-.325 2.562l1.962 3.288-3.925.425-1.963 3.713-1.962-3.288-3.925.425 1.962-3.713-1.962-3.288 3.925-.426 1.962-3.713 1.963 3.289 3.925-.425-1.962 3.713z" fill="#2276AC" fill-rule="nonzero"/><path d="M184.566 42.38c2.912.145 5.638-3.369 5.831-7.764.198-4.5-3.447-10.381-4.659-11.467 0 0-5.19 6.152-5.546 12.246-.204 3.457 1.46 6.841 4.374 6.985zm3.468-21.255c6.94 8.933 7.65 17.377 3.68 21.971-4.485 5.189-13.037 4.278-15.872-3.104-2.9-7.552.705-17.23 6.032-20.906-.652-.918-1.576-5.032 2.934-1.52 1.525-1.381 4.951-.693 5.145.3.193.993-.666 1.828-1.92 3.26zM38.057 67.386l1.463-1.743c1.012.832 2.074 1.36 3.36 1.36 1.013 0 1.624-.4 1.624-1.056v-.032c0-.623-.386-.943-2.267-1.423-2.267-.574-3.73-1.198-3.73-3.421v-.032c0-2.029 1.64-3.372 3.939-3.372 1.64 0 3.037.511 4.18 1.423l-1.287 1.855c-.997-.689-1.978-1.104-2.926-1.104-.948 0-1.446.431-1.446.975v.031c0 .736.482.976 2.427 1.471 2.283.592 3.569 1.407 3.569 3.357v.032c0 2.223-1.704 3.468-4.131 3.468a7.189 7.189 0 0 1-4.775-1.789zm136.108-7.29h-3.424v-2.27h9.322v2.27h-3.424v8.92h-2.474v-8.92zm-14.389 7.29l1.462-1.743c1.013.832 2.074 1.36 3.36 1.36 1.013 0 1.624-.4 1.624-1.056v-.032c0-.623-.386-.943-2.267-1.423-2.267-.574-3.729-1.198-3.729-3.421v-.032c0-2.029 1.639-3.372 3.938-3.372 1.64 0 3.039.511 4.18 1.423l-1.286 1.855c-.997-.689-1.978-1.104-2.926-1.104-.948 0-1.447.431-1.447.975v.031c0 .736.482.976 2.427 1.471 2.283.592 3.57 1.407 3.57 3.357v.032c0 2.223-1.704 3.468-4.132 3.468a7.19 7.19 0 0 1-4.774-1.789zm-10.95-9.56h8.488v2.19h-6.027v2.27h5.304v2.19h-5.304v2.35h6.108v2.19h-8.568v-11.19zm-8.761 2.27h-3.424v-2.27h9.323v2.27h-3.424v8.92h-2.475v-8.92zm-16.044-2.27h2.282l5.273 6.89v-6.89h2.443v11.19h-2.106l-5.449-7.113v7.113h-2.443v-11.19zm-5.435 5.627v-.032c0-1.917-1.416-3.517-3.408-3.517-1.995 0-3.376 1.567-3.376 3.485v.032c0 1.92 1.414 3.517 3.408 3.517 1.993 0 3.376-1.567 3.376-3.485zm-3.376-5.818c3.472 0 5.963 2.574 5.963 5.754v.032c0 3.181-2.524 5.786-5.995 5.786-3.473 0-5.965-2.573-5.965-5.754v-.032c0-3.18 2.524-5.786 5.997-5.786zm-18.504 5.818v-.032c0-3.18 2.41-5.786 5.867-5.786 2.12 0 3.392.703 4.437 1.726l-1.576 1.806c-.868-.783-1.753-1.263-2.877-1.263-1.897 0-3.263 1.567-3.263 3.485v.032c0 1.92 1.333 3.517 3.263 3.517 1.285 0 2.073-.511 2.956-1.31l1.577 1.582c-1.158 1.23-2.444 1.997-4.614 1.997-3.31 0-5.77-2.541-5.77-5.754zm-19.357 0v-.032c0-3.18 2.492-5.786 5.9-5.786 2.025 0 3.247.543 4.42 1.534l-1.56 1.87c-.867-.718-1.639-1.135-2.94-1.135-1.8 0-3.232 1.583-3.232 3.485v.032c0 2.046 1.415 3.55 3.408 3.55.9 0 1.704-.225 2.33-.672v-1.6h-2.49v-2.126h4.886v4.86c-1.158.975-2.749 1.774-4.806 1.774-3.505 0-5.916-2.445-5.916-5.754zM64.2 57.826h2.282l5.272 6.89v-6.89h2.443v11.19h-2.105l-5.45-7.113v7.113h-2.443v-11.19zm-5.436 5.627v-.032c0-1.917-1.414-3.517-3.408-3.517-1.993 0-3.376 1.567-3.376 3.485v.032c0 1.92 1.416 3.517 3.408 3.517 1.994 0 3.376-1.567 3.376-3.485zm-3.376-5.818c3.473 0 5.964 2.574 5.964 5.754v.032c0 3.181-2.524 5.786-5.996 5.786-3.472 0-5.963-2.573-5.963-5.754v-.032c0-3.18 2.523-5.786 5.995-5.786zM21.461 12.005C8.383 13.423 4.024 20.96 3.621 21.98c-.306.78-.228.963.632.963s12.737-1.3 16.176-1.133c3.499.17 3.27 3.967.516 4.76C9.703 29.686 3.163 37.62 3.163 41.7c0 3.116 2.295 4.59 4.933 4.59 7.858 0 15.81-8.067 17.292-9.842.935-1.12 1.514-.416 1.515.083.013 6.555-7.117 14.293-16.684 14.293-6.826 0-10.096-5.157-10.096-9.464 0-8.16 8.949-15.13 8.949-15.13s-4.536.17-6.085.17c-1.251 0-2.123-.934-2.164-1.952C.4 13.838 11.465 5.646 21.477 6.362c3.958.284 4.401 5.304-.016 5.643zM33.026 36.871c.196 1.924 1.548 3.954 3.384 2.005 4.646-5.235 4.187-19.66 4.072-21.218-.114-1.56.746-2.006 1.377-1.17.631.835 3.614 5.457 3.614 12.53 0 8.577-5.27 17.364-9.4 17.364-9.408 0-8.554-20.928-5.743-27.834 1.46-3.587 5.334-2.031 5.334.502 0 3.675-3.212 12.196-2.638 17.821zM78.155 41.484c2.678 0 5.06-3.803 5.06-8.413S80.06 23.91 78.75 22.297c0 0-4.762 5.82-4.762 12.215 0 3.63 1.488 6.972 4.167 6.972zm2.143-21.204c6.846 8.988 7.738 17.343 4.346 22.357-3.804 5.618-12.01 4.992-14.942-2.42-3.066-7.753-.23-16.995 3.818-21.374 3.075-3.327 6.357-2.933 7.381-1.67.911 1.12-.603 3.107-.603 3.107z" fill="#FFF" fill-rule="nonzero"/><path d="M54.455 21.82s-.224 2.92-.449 5.731c2.825.05 8.072-1.155 10.354-4.638.968-1.48.573-2.28-1.33-2.471-2.185-.222-8.575 1.377-8.575 1.377zm1.85 8.652c5.251 4.521 8.684 11.99 11.418 15.72.67.912-.27 1.427-1.181 1.11-1.688-.584-3.044-.957-7.155-6.138-2.802-3.532-5.1-6.558-5.941-7.274-.728 8.046-2.29 10.177-3.018 11.058-.823.997-1.4.834-1.514-.11-.112-.937.384-11.72.665-14.144-.897-1.104-1.682-1.434-1.794-1.82-.112-.386.253-.717 2.074-.496.224-2.04 1.065-5.897 1.065-5.897-2.242.881-4.036-2.37-1.626-3.748 1.85-1.102 6.734-2.572 11.162-2.572 4.428 0 7.84 2.324 7.84 5.548 0 4.355-6.67 8.432-11.996 8.763zM139.14 16.282c1.698.548 3.172 3.443 2.762 8.173-.67 7.719-5.896 17.316-6.654 20.957-.255 1.219-1.208 1.16-1.643.49-.416-.64-1.29-2.605-1.053-7.464.325-6.666 5.4-15.797 5.249-21.54-.021-.768.582-.86 1.34-.616zM156.952 21.645c-5.89 0-7.721 1.798-7.721 3.169 0 3.668 6.394 3.408 9.348 3.742 1.71.192 3.927 1.296 3.927 4.223 0 3.234-4.086 5.832-8.423 8.197-4.557 2.484-9.254 4.922-11.398 6.384-1.103.753-1.818-.22-1.29-1.24 1.524-2.943 4.377-5.717 8.282-8.342 5.716-3.84 9.389-5.592 7.854-6.147-.848-.307-3.178-.482-5.57-.926-4.114-.668-6.694-3.038-6.694-6.484 0-5.595 5.058-8.059 12.07-8.059 3.7 0 4.158 5.483-.385 5.483zM167.568 16.187c1.888.159 5.111 2.676 4.751 9.169-.282 5.099-4.646 16.07-5.024 20.113-.076.822-.895 1.279-1.519.518-1.22-1.487-1.738-3.104-1.738-7.69 0-4.587 3.953-16.658 1.63-21.096-.53-.913.854-1.101 1.9-1.014zM168.316 2.172c-.41-1.534 1.325-1.704 2.551-.756.79.612 4.718 4.296 4.718 8.75 0 5.109-7.35 4.435-7.227.255.041-1.46.898-5.037-.042-8.25zM215.09 46.206c-4.35-3.857-3.94-14.904-4.158-19.274-.215-4.294-5.465-3.964-6.751-2.166-.928 5.506-1.245 15.398-3.96 20.83-.393.734-1.393.61-1.495-.227-.106-.88-1.113-3.183-1.113-9.678 0-6.497.738-15.869 5.847-19.135.929-.515 1.571-.513 1.607.037.03.481-.136 2.008-.173 3 0 0 1.93-1.506 5.18-1.506 2.423 0 6.455 2.514 6.705 7.41v1.691c-.126 6.464-1.16 13.192-.323 18.491.13.809-.78 1.047-1.366.527z" fill="#FFF" fill-rule="nonzero"/><path d="M60.113 76.174H57v-1.008h7.285v1.008h-3.113v8.66h-1.06v-8.66zm6.795-1.008h6.702v.994h-5.656v3.301h5.06v.995h-5.06v3.384h5.723v.994h-6.77v-9.668zm9.537 0h1.046v8.66h5.22v1.008h-6.266v-9.668zm19.511 6.132l-2.106-4.93-2.12 4.93h4.226zm-2.583-6.201h.98l4.226 9.737h-1.126l-1.086-2.555H91.32l-1.1 2.555h-1.072l4.225-9.737zm6.901.069h1.166l3.298 8.328 3.312-8.328h1.125l-3.987 9.737h-.927l-3.987-9.737zm11.484 0h1.047v9.668h-1.047v-9.668zm3.63 0h1.165l3.299 8.328 3.311-8.328h1.126l-3.987 9.737h-.927l-3.987-9.737zm15.352 8.826l3.364-3.094c.353-.332.654-.631.9-.898a5.46 5.46 0 0 0 .597-.753c.15-.235.26-.465.331-.69a2.32 2.32 0 0 0 .106-.698c0-.285-.05-.54-.152-.766a1.748 1.748 0 0 0-1-.953 1.992 1.992 0 0 0-.716-.132c-.53 0-.984.14-1.364.422-.38.28-.755.692-1.126 1.236l-.768-.58a8.61 8.61 0 0 1 .649-.87c.22-.258.461-.475.722-.65.26-.175.552-.308.874-.4a3.98 3.98 0 0 1 1.093-.138c.415 0 .8.069 1.152.207.354.138.658.329.914.573.256.244.455.532.596.863.142.332.212.695.212 1.091v.028c0 .35-.046.675-.139.974-.093.3-.234.594-.424.884-.19.29-.432.587-.728.89-.296.305-.647.64-1.053 1.009l-2.477 2.293h4.914v.994h-6.477v-.842zm12.716.014c.432 0 .823-.109 1.172-.325.349-.216.645-.507.888-.87.242-.364.428-.788.556-1.27.128-.484.192-.989.192-1.513V80c0-.525-.066-1.029-.199-1.512a4.323 4.323 0 0 0-.57-1.278 3.023 3.023 0 0 0-.893-.884 2.145 2.145 0 0 0-1.173-.332c-.432 0-.823.109-1.172.325a2.903 2.903 0 0 0-.887.87c-.243.364-.43.785-.563 1.264a5.675 5.675 0 0 0-.2 1.52V80c0 .525.067 1.029.2 1.512.132.484.322.91.57 1.278.246.368.547.663.9.884.353.221.746.332 1.179.332zm-.027.994c-.6 0-1.141-.131-1.622-.394a3.786 3.786 0 0 1-1.232-1.077c-.34-.456-.6-.983-.782-1.581a6.6 6.6 0 0 1-.271-1.92V80c0-.672.092-1.312.278-1.92.185-.608.45-1.14.795-1.595a3.933 3.933 0 0 1 1.238-1.084 3.287 3.287 0 0 1 1.623-.401c.591 0 1.128.131 1.61.394.48.262.891.621 1.231 1.077.34.456.6.985.782 1.588a6.62 6.62 0 0 1 .271 1.913V80c0 .681-.093 1.324-.278 1.927a5.174 5.174 0 0 1-.788 1.588 3.84 3.84 0 0 1-1.239 1.084c-.485.267-1.024.401-1.616.401zm7.776-8.77l-1.749.566-.252-.884 2.266-.815h.768v9.737h-1.033V76.23zm7.219 4.143c.353 0 .673-.062.96-.187a2.27 2.27 0 0 0 .728-.49c.2-.202.351-.435.457-.697a2.14 2.14 0 0 0 .16-.808v-.028c0-.304-.058-.59-.173-.856a2.1 2.1 0 0 0-.483-.698 2.287 2.287 0 0 0-.749-.47 2.573 2.573 0 0 0-.953-.172c-.345 0-.656.062-.934.186a2.1 2.1 0 0 0-1.14 1.216c-.1.271-.152.56-.152.863v.028c0 .304.056.587.166.85.11.262.265.485.464.669.198.184.439.33.721.435.283.106.592.159.928.159zM158.145 85c-.609 0-1.139-.113-1.59-.338a6.252 6.252 0 0 1-1.27-.85l.609-.842c.38.35.75.61 1.112.78.362.17.75.256 1.166.256.415 0 .795-.106 1.14-.318.343-.212.637-.504.88-.877s.428-.82.556-1.34c.128-.52.188-1.089.18-1.706a3.677 3.677 0 0 1-1.02 1.091c-.425.304-.959.456-1.604.456-.476 0-.914-.074-1.31-.22a2.965 2.965 0 0 1-1.02-.622 2.848 2.848 0 0 1-.663-.953 3 3 0 0 1-.239-1.202v-.028c0-.46.082-.89.245-1.291.164-.4.391-.748.683-1.043a3.169 3.169 0 0 1 1.053-.697A3.51 3.51 0 0 1 158.41 75c.53 0 .994.087 1.391.262.398.175.746.42 1.047.732.353.369.633.843.84 1.423.208.58.312 1.354.312 2.32v.028a7.62 7.62 0 0 1-.278 2.113c-.186.645-.448 1.198-.788 1.658-.34.46-.746.82-1.219 1.077a3.222 3.222 0 0 1-1.57.387z" fill="#FFF"/></g></svg>